# xmcd CD database file
#
# Track frame offsets:
#	150
#	21273
#	39051
#	56926
#	78404
#	95402
#	118227
#	135570
#	148750
#
# Disc length: 2300 seconds
#
# Revision: 0
# Processed by: cddbd v1.5.2PL0 Copyright (c) Steve Scherf et al.
# Submitted via: CDex 1.50
#
DISCID=7908fa09
DTITLE=The Robert Cray Band - False Accusations
DYEAR=1885
DGENRE=Blues
TTITLE0=Porch Light
TTITLE1=Change Of Heart, Change Of Mind
TTITLE2=She's Gone
TTITLE3=Playin In The Dirt
TTITLE4=I've Slipped Her Mind
TTITLE5=False Accusations
TTITLE6=The Last Time
TTITLE7=Payin For It Now
TTITLE8=Sonny
EXTD=YEAR: 1885
EXTT0=
EXTT1=
EXTT2=
EXTT3=
EXTT4=
EXTT5=
EXTT6=
EXTT7=
EXTT8=
PLAYORDER=
